<svg xmlns="http://www.w3.org/2000/svg" viewBox="0 0 600 375"><rect width="600" height="375" fill="#0c1115"/><defs><radialGradient id="g"><stop stop-color="#c3a6ff" stop-opacity=".13"/><stop offset="1" stop-color="#c3a6ff" stop-opacity="0"/></radialGradient></defs><rect width="600" height="375" fill="url(#g)"/><g font-family="monospace"><circle cx="120" cy="60" r="3" fill="#5ce1ff" opacity=".65"/><circle cx="187" cy="103" r="4" fill="#c3a6ff" opacity=".65"/><circle cx="254" cy="146" r="5" fill="#5ce1ff" opacity=".65"/><circle cx="321" cy="189" r="3" fill="#c3a6ff" opacity=".65"/><circle cx="388" cy="87" r="4" fill="#5ce1ff" opacity=".65"/><circle cx="455" cy="130" r="5" fill="#c3a6ff" opacity=".65"/><circle cx="172" cy="173" r="3" fill="#5ce1ff" opacity=".65"/><circle cx="239" cy="71" r="4" fill="#c3a6ff" opacity=".65"/><circle cx="306" cy="114" r="5" fill="#5ce1ff" opacity=".65"/><circle cx="373" cy="157" r="3" fill="#c3a6ff" opacity=".65"/><circle cx="440" cy="200" r="4" fill="#5ce1ff" opacity=".65"/><circle cx="157" cy="98" r="5" fill="#c3a6ff" opacity=".65"/><circle cx="224" cy="141" r="3" fill="#5ce1ff" opacity=".65"/><circle cx="291" cy="184" r="4" fill="#c3a6ff" opacity=".65"/><circle cx="358" cy="82" r="5" fill="#5ce1ff" opacity=".65"/><circle cx="425" cy="125" r="3" fill="#c3a6ff" opacity=".65"/><circle cx="142" cy="168" r="4" fill="#5ce1ff" opacity=".65"/><circle cx="209" cy="66" r="5" fill="#c3a6ff" opacity=".65"/><circle cx="276" cy="109" r="3" fill="#5ce1ff" opacity=".65"/><circle cx="343" cy="152" r="4" fill="#c3a6ff" opacity=".65"/><circle cx="410" cy="195" r="5" fill="#5ce1ff" opacity=".65"/><circle cx="127" cy="93" r="3" fill="#c3a6ff" opacity=".65"/><circle cx="194" cy="136" r="4" fill="#5ce1ff" opacity=".65"/><circle cx="261" cy="179" r="5" fill="#c3a6ff" opacity=".65"/><circle cx="328" cy="77" r="3" fill="#5ce1ff" opacity=".65"/><circle cx="395" cy="120" r="4" fill="#c3a6ff" opacity=".65"/><circle cx="462" cy="163" r="5" fill="#5ce1ff" opacity=".65"/><circle cx="179" cy="61" r="3" fill="#c3a6ff" opacity=".65"/><circle cx="246" cy="104" r="4" fill="#5ce1ff" opacity=".65"/><circle cx="313" cy="147" r="5" fill="#c3a6ff" opacity=".65"/><circle cx="380" cy="190" r="3" fill="#5ce1ff" opacity=".65"/><circle cx="447" cy="88" r="4" fill="#c3a6ff" opacity=".65"/><circle cx="164" cy="131" r="5" fill="#5ce1ff" opacity=".65"/><circle cx="231" cy="174" r="3" fill="#c3a6ff" opacity=".65"/><path d="M110 215 L490 60 M105 220 H505 M110 220 V45" stroke="#c3a6ff" stroke-opacity=".4" fill="none"/><text x="300" y="292" text-anchor="middle" fill="#c3a6ff" font-size="14" letter-spacing="2">MEASURING &amp; MITIGATING BIAS</text><text x="300" y="322" text-anchor="middle" fill="#7f8791" font-size="11">PROJECT OVERVIEW</text></g></svg>